<svg width="336" height="99" fill="none" xmlns="http://www.w3.org/2000/svg"><path d="M170.602 84.045l-2.836 8.568-17.598-.003c-5.917 0-9.709-5.201-7.766-10.742l6.663-20.133 5.456-16.486c1.31-3.879 4.781-6.451 8.893-6.451h22.163l-2.835 8.565h-18.065c-1.181 0-1.934.547-2.26 1.623l-10.72 32.391c-.588 1.443.331 2.667 1.832 2.667h17.073z" fill="#0082C8"/><path fill-rule="evenodd" clip-rule="evenodd" d="M157.911 80.998h-3.044l10.144-30.65h3.044l-10.144 30.65z" fill="#0082C8"/><path d="M243.758 84.044l-2.835 8.567h-17.588c-5.916 0-9.708-5.202-7.765-10.743l8.391-25.354 3.728-11.265c1.309-3.878 4.781-6.45 8.893-6.45h13.941c5.958 0 9.658 5.134 7.803 10.74l-4.897 14.793c-1.04 3.147-3.171 5.227-6.313 6.142l-20.632 6.013-1.73 5.225c-.33 1.293.559 2.333 1.942 2.333h17.062zm4.873-36.68h-10.787c-1.119 0-1.854.492-2.205 1.46l-5.902 17.831 14.188-4.134c.82-.24 1.311-.752 1.555-1.49l4.072-12.302c.202-.611-.19-1.365-.921-1.365zm-55.957 16.061l-6.825 20.62h12.153c1.182 0 1.907-.546 2.261-1.614l5.842-17.641c.052-.771-.023-1.366-.984-1.366h-12.447zm2.834-8.566h11.671c5.012 0 8.49 3.65 8.161 8.566-.047.702-.216 1.425-.463 2.172l-6.551 19.798c-1.4 4.23-5.449 7.215-9.901 7.215h-24.544l17.81-53.812h28.92l-2.835 8.566h-19.787l-2.481 7.495zm72.456-16.061h20.699c5.959 0 9.658 5.135 7.803 10.74l-4.896 14.794c-1.041 3.147-3.172 5.227-6.313 6.142l-20.633 6.013-5.336 16.124h-9.133l17.809-53.813zm-.086 27.857l14.187-4.134c.821-.24 1.312-.752 1.556-1.49l4.072-12.302c.202-.611-.19-1.365-.922-1.365h-12.508l-6.385 19.291zM123.608 92.61l8.426-25.457-17.468 11.033-4.775 14.425h-9.132l17.81-53.813h9.132l-9.219 27.857 17.468-11.032 5.568-16.825h9.133l-17.81 53.813h-9.133z" fill="#0082C8"/><path fill-rule="evenodd" clip-rule="evenodd" d="M127.55 32.147h18.321l-6.01-10.926-13.596 8.59 1.285 2.336zm-15.858-18.872L85.436 92.611h9.132l26.257-79.336h-9.133z" fill="#0082C8"/><path d="M54.741 52.697c-3.837-3.725-8.243-7.35-13.273-10.844l1.68-2.778c.06-.092.117-.185.17-.28v-.001c5.01 3.47 9.434 7.069 13.32 10.77l-1.897 3.133zm17.219 4.707a84.742 84.742 0 014.05 5.996 79.828 79.828 0 014.964 9.413l.03.065.272.68-1.804 5.4-2.024-5.056a75.624 75.624 0 00-4.671-8.85 79.366 79.366 0 00-2.843-4.303l2.026-3.345zM46.562 33.428a126.188 126.188 0 017.4 5.498 111.904 111.904 0 015.992 5.161l-1.891 3.124a107.903 107.903 0 00-6.347-5.506 122.67 122.67 0 00-7.005-5.216l1.851-3.061z" fill="#0082C8"/><path d="M107.979 15.293L82.39 92.61h-6.138l-.317-1.74c-1.493-8.18-4.55-16.31-9.609-24.163l2.07-3.417c5.614 8.228 9.106 16.763 10.929 25.367l24.281-73.365h4.373zm-63.32 67.851c-1.967 3.38-3.522 6.793-6.898 9.099-3.422 2.336-8.16 3.35-12.097 4.079-3.105.575-13.96 1.95-20.199 1.753-3.488-.11-4.648-.064-4.914-3.16-.082-.956-.076-1.937-.075-2.426.02-6.31 8.746-4.197 12.674-4.201 8.303-.009 22.918.562 28.072-7.566L86.966 5.061l3.537 2.258-45.844 75.825z" fill="#0082C8"/><path d="M89.614 14.43c1.967-3.38 3.522-6.793 6.898-9.1 3.421-2.335 8.16-3.35 12.097-4.078 3.105-.575 13.959-1.95 20.198-1.753 3.489.11 4.649.064 4.915 3.16.082.956.076 1.936.074 2.426-.02 6.31-8.745 4.197-12.673 4.2-8.302.01-22.918-.562-28.072 7.566L47.307 92.513l-3.537-2.259L89.614 14.43z" fill="#0082C8"/><path fill-rule="evenodd" clip-rule="evenodd" d="M24.436 25.442l-1.084 2.22c-2.264 4.03 14.618 14.085 17.081 9.702l1.928-3.155c1.123-1.837-1.908-5.703-6.62-8.544-4.71-2.841-9.386-3.622-10.441-1.744-1.055 1.877 1.909 5.702 6.62 8.543 2.916 1.758 5.817 2.727 7.855 2.765-4.067.197-10.906-3.083-13.807-6.958-.74-.963-1.349-1.978-1.532-2.829z" fill="#0082C8"/><path d="M288.3 92.61l10.218-30.874 5.456-16.487c1.31-3.878 4.781-6.45 8.893-6.45h22.162l-2.834 8.565h-18.066c-1.18 0-1.934.547-2.259 1.623L297.432 92.61H288.3z" fill="#0082C8"/><path fill-rule="evenodd" clip-rule="evenodd" d="M303.521 92.61h-3.044l13.986-42.262h3.045l-13.987 42.263z" fill="#0082C8"/></svg>