<svg width="480" height="71" fill="none" xmlns="http://www.w3.org/2000/svg"><path fill-rule="evenodd" clip-rule="evenodd" d="M109.411.956H.001v4.696h109.41V.956zm0 64.801H.001v4.696h109.41v-4.696z" fill="#0082C8"/><path d="M73.793 39.79a10.208 10.208 0 01-7.17 2.9c-3.84 0-5.968-2.504-5.371-6.063.723-4.317 4.635-7.909 9.632-7.909 2.68 0 4.17.99 5.112 2.472l4.198-2.933c-1.147-2.636-3.518-4.481-8.15-4.481-8.34 0-14.955 5.898-16.187 13.246-1.27 7.58 3.914 10.611 9.706 10.611 4.5 0 8.268-1.746 10.74-4.646l-2.51-3.196zm18.278 7.447h5.13l8.366-23.066H85.049l-8.367 23.066h5.13l6.64-18.288H98.71l-6.639 18.288zm11.938-9.82c-.978 5.833 2.425 10.216 8.844 10.216 7.645 0 14.707-5.602 16.06-13.675 1.005-5.997-2.298-10.182-8.784-10.182-9.035 0-15.137 7.776-16.12 13.642zm5.4-.427c.762-4.548 4.828-8.272 9.329-8.272 3.673 0 5.283 2.637 4.764 5.734-.74 4.416-4.724 8.238-9.257 8.238-3.376 0-5.422-2.207-4.836-5.7zm23.07 10.247l2.638-7.249h4.467c6.454 0 12.03-2.866 13.036-8.864.629-3.757-.721-6.953-7.307-6.953h-9.597l-8.367 23.066h5.13zm11.239-18.288c2.813 0 3.761 1.054 3.513 2.537-.37 2.208-2.246 3.724-5.986 3.724h-4.401l2.274-6.26h4.6zm9.829 0h7.413l-6.64 18.288h5.13l6.639-18.288h7.446l1.728-4.778h-19.989l-1.727 4.779zm19.703 18.288l16.191-13.477-4.906 13.477h5.13l8.367-23.066h-4.27l-16.136 13.543 4.918-13.543h-5.13l-8.367 23.066h4.203zm20.717 0h10.094c5.956 0 10.883-1.943 11.877-7.875.391-2.34-.314-3.657-1.423-4.35 1.936-.89 3.834-2.735 4.237-5.14.63-3.756-.963-5.7-6.06-5.7h-10.358l-8.367 23.065zm13.267-9.457c2.151 0 3.579.363 3.331 1.846-.331 1.977-2.03 2.833-5.307 2.833h-4.434l1.711-4.679h4.699zm3.201-8.83c2.383 0 3.044.592 2.851 1.746-.265 1.581-1.672 2.47-3.955 2.47h-5.129l1.534-4.216h4.699zm21.391 18.287h5.13l8.367-23.066h-5.13l-3.273 9.062h-10.292l3.273-9.062h-5.13l-8.366 23.066h5.129l3.334-9.226h10.292l-3.334 9.226zm7.148 0h5.692l3.432-4.283h9.531l.341 4.283h5.13l-1.793-23.066h-3.806l-18.527 23.066zm17.858-15.322l.495 6.722h-5.858l5.363-6.722zm22.053 15.322h5.13l8.367-23.066h-10.325c-6.057 0-11.242 2.9-12.175 8.469-.509 3.032.738 4.877 2.971 5.965l-9.886 8.632h6.189l8.722-7.611h3.773l-2.766 7.611zm-.571-12.39c-2.118 0-3.314-.955-2.999-2.833.364-2.175 2.4-3.065 5.345-3.065h4.865l-2.147 5.899h-5.064zm21.56 12.39h27.103l8.367-23.066h-5.13l-6.639 18.288h-5.858l6.64-18.288h-5.129l-6.64 18.288h-5.858l6.64-18.288h-5.13l-8.366 23.066zm31.405 0h5.129l2.616-7.117 3.084-2.208 4.428 9.325h6.122l-5.861-12.423 13.566-10.643h-7.148L341.458 33.3l3.318-9.128h-5.13l-8.367 23.066zm24.216-9.82c-.978 5.833 2.424 10.216 8.845 10.216 7.644 0 14.705-5.602 16.059-13.675 1.005-5.997-2.298-10.182-8.784-10.182-9.035 0-15.137 7.776-16.12 13.642zm5.4-.427c.762-4.548 4.828-8.272 9.328-8.272 3.674 0 5.284 2.637 4.765 5.734-.74 4.416-4.724 8.238-9.257 8.238-3.376 0-5.422-2.207-4.836-5.7zm31.542 10.247h5.129l8.367-23.066h-17.374l-.966 2.603c-5.47 14.664-7.108 16.147-10.478 15.719l-1.722 4.744c.42.066 1.341.1 1.969.1 5.858 0 9.284-4.647 13.395-15.554l1.011-2.67h7.247l-6.578 18.124zm7.148 0h5.692l3.432-4.283h9.53l.342 4.283h5.129l-1.793-23.066h-3.806l-18.526 23.066zm17.857-15.322l.495 6.722h-5.857l5.362-6.722z" fill="#0082C8"/><path fill-rule="evenodd" clip-rule="evenodd" d="M218.821.956h-109.41v4.696h109.41V.956zm0 64.801h-109.41v4.696h109.41v-4.696zM328.23.956H218.821v4.696H328.23V.956zm0 64.801H218.821v4.696H328.23v-4.696zM437.64.956H328.23v4.696h109.41V.956zm0 64.801H328.23v4.696h109.41v-4.696zM479.14.956h-41.5v4.696h41.5V.956zm-22.637 64.801H437.64v4.696h18.863v-4.696z" fill="#0082C8"/></svg>