<svg width="394" height="117" fill="none" xmlns="http://www.w3.org/2000/svg"><path fill-rule="evenodd" clip-rule="evenodd" d="M361.539 59.695h3.343l-17.211 47.232h-3.343l17.211-47.232z" fill="#fff"/><path d="M198.734 106.93l-19.303-.003c-6.491-.001-10.422-5.812-8.046-12.005l8.197-22.5 6.713-18.425c1.607-4.335 5.529-7.21 10.041-7.21h24.313l-3.487 9.572h-19.819c-1.296 0-2.146.612-2.551 1.814l-13.188 36.2c-.708 1.613.246 2.98 1.892 2.98h18.727l-3.489 9.577zm83.75-9.576l-3.488 9.573h-19.294c-6.491 0-10.422-5.812-8.046-12.006l10.323-28.335 4.587-12.59c1.607-4.334 5.529-7.21 10.04-7.21H291.9c6.537 0 10.37 5.74 8.087 12.005l-6.023 16.533c-1.281 3.516-3.711 5.84-7.197 6.863l-22.901 6.72-2.128 5.84c-.418 1.445.511 2.607 2.028 2.607h18.718zm6.963-40.995h-11.834c-1.228 0-2.056.55-2.483 1.632l-7.261 19.929 15.747-4.62c.911-.268 1.472-.84 1.772-1.665l5.009-13.75c.249-.683-.148-1.526-.95-1.526zm21.588-9.572h22.708c6.537 0 10.37 5.739 8.087 12.004l-6.023 16.533c-1.281 3.516-3.711 5.84-7.197 6.863l-22.901 6.72-6.565 18.02h-10.023l21.914-60.14zm-1.323 31.133l15.747-4.62c.911-.268 1.472-.84 1.773-1.665l5.008-13.75c.249-.683-.148-1.526-.95-1.526h-13.723l-7.855 21.561zm40.272-23.177l.272-.747c1.607-4.334 5.529-7.21 10.041-7.21h24.314l-3.488 9.573h-19.819c-1.295 0-2.146.612-2.55 1.814l-17.762 48.754h-10.026l19.016-52.184h.002zM160.655 78.478L141.01 90.805l-5.875 16.122h-10.019l21.91-60.14h10.019l-11.339 31.131 19.645-12.327 6.853-18.804h10.019l-21.91 60.14h-10.02l10.362-28.449z" fill="#fff"/><path fill-rule="evenodd" clip-rule="evenodd" d="M157.282 39.354h20.1l-6.112-12.211-15.294 9.6 1.306 2.61z" fill="#fff"/><path d="M75.5 62.355c-4.142-4.16-8.924-8.208-14.406-12.11l1.98-3.103c.07-.102.137-.206.2-.313 5.46 3.875 10.263 7.894 14.462 12.028L75.5 62.355zm19.043 5.256a90.262 90.262 0 014.296 6.696 85.58 85.58 0 015.185 10.511l.03.074.279.76-2.218 6.03-2.069-5.648a81.021 81.021 0 00-4.88-9.882 84.735 84.735 0 00-3.01-4.805l2.387-3.736zM67.098 40.836a134.172 134.172 0 018.052 6.14 119.401 119.401 0 016.495 5.764l-2.23 3.489c-2.203-2.14-4.5-4.188-6.876-6.15a130.362 130.362 0 00-7.623-5.825l2.182-3.418z" fill="#fff"/><path d="M104.858 106.927h-6.852l-.289-1.943c-1.358-9.134-4.464-18.214-9.814-26.983l2.44-3.817c5.956 9.19 9.532 18.721 11.242 28.33l29.854-81.93h4.899l-31.462 86.343h-.018zm-41.76-10.571c-2.324 3.774-4.188 7.586-8.044 10.16-3.907 2.61-9.235 3.742-13.657 4.556-3.487.642-15.655 2.178-22.612 1.958-3.89-.124-5.187-.072-5.367-3.529-.055-1.068-.012-2.163.008-2.709.261-7.047 9.921-4.688 14.305-4.692 9.269-.009 25.562.628 31.621-8.448l53.916-84.494 3.863 2.522-54.033 84.676z" fill="#fff"/><path d="M115.871 19.62c2.323-3.774 4.187-7.586 8.043-10.16 3.908-2.61 9.235-3.742 13.657-4.556 3.488-.642 15.656-2.178 22.613-1.958 3.889.124 5.186.072 5.366 3.53.055 1.067.012 2.162-.008 2.708-.261 7.048-9.921 4.688-14.305 4.692-9.268.01-25.562-.628-31.621 8.449L65.7 106.817l-3.863-2.522L115.87 19.62zm85.556 16.246a4.823 4.823 0 01-3.377 1.366c-1.802 0-2.791-1.18-2.497-2.855.357-2.032 2.207-3.723 4.552-3.723 1.258 0 1.953.465 2.39 1.163l1.981-1.38c-.528-1.242-1.633-2.11-3.807-2.11-3.914 0-7.042 2.777-7.649 6.236-.626 3.569 1.794 4.996 4.513 4.996 2.112 0 3.887-.822 5.059-2.188l-1.165-1.505zm9.54 3.507h2.408l4.018-10.86h-9.63l-4.018 10.86h2.407l3.189-8.61h4.815l-3.189 8.61zm6.634-4.623c-.481 2.745 1.098 4.809 4.111 4.809 3.588 0 6.924-2.637 7.592-6.439.495-2.823-1.039-4.793-4.083-4.793-4.24 0-7.135 3.661-7.62 6.422zm2.537-.202c.375-2.141 2.298-3.894 4.411-3.894 1.724 0 2.469 1.24 2.213 2.7-.365 2.078-2.25 3.878-4.378 3.878-1.584 0-2.535-1.04-2.246-2.684zm11.778 4.825l1.267-3.413h2.097c3.029 0 5.658-1.35 6.153-4.174.31-1.769-.311-3.273-3.402-3.273h-4.504l-4.018 10.86h2.407zm5.348-8.61c1.32 0 1.761.496 1.638 1.194-.182 1.04-1.068 1.753-2.823 1.753h-2.066l1.092-2.948h2.159zm5.605 0h3.479l-3.188 8.61h2.407l3.189-8.61h3.494l.83-2.25h-9.381l-.83 2.25zm10.167 8.61l7.652-6.346-2.356 6.346h2.408l4.018-10.86h-2.004l-7.626 6.376 2.361-6.376h-2.407l-4.018 10.86h1.972zm10.715 0h4.737c2.796 0 5.116-.915 5.606-3.708.193-1.102-.133-1.722-.65-2.048.912-.419 1.81-1.288 2.008-2.42.311-1.769-.429-2.684-2.822-2.684h-4.861l-4.018 10.86zm6.264-4.453c1.01 0 1.679.17 1.557.869-.164.93-.965 1.334-2.503 1.334h-2.081l.822-2.203h2.205zm1.538-4.158c1.118 0 1.426.28 1.331.823-.131.744-.795 1.163-1.866 1.163h-2.408l.737-1.985h2.206zm10.958 8.61h2.408l4.018-10.859h-2.407l-1.572 4.266h-4.83l1.571-4.266h-2.407l-4.018 10.86h2.407l1.601-4.344h4.831l-1.602 4.344zm4.348 0h2.671l1.628-2.016h4.473l.143 2.017h2.407l-.75-10.86h-1.786l-8.786 10.86zm8.442-7.214l.205 3.166h-2.749l2.544-3.166zm11.281 7.215h2.408l4.018-10.86h-4.846c-2.843 0-5.287 1.365-5.748 3.987-.25 1.427.327 2.296 1.372 2.808l-4.675 4.065h2.905l4.124-3.584h1.77l-1.328 3.584zm-.218-5.834c-.994 0-1.552-.45-1.397-1.334.18-1.024 1.138-1.442 2.521-1.442h2.283l-1.031 2.776h-2.376zm16.157 5.834h12.721l4.018-10.86h-2.407l-3.189 8.61h-2.749l3.188-8.61h-2.407l-3.188 8.61h-2.75l3.189-8.61h-2.407l-4.019 10.86zm15.733 0h2.407l1.256-3.351 1.455-1.04 2.041 4.39h2.874l-2.701-5.848 6.408-5.01h-3.354l-5.554 4.296 1.593-4.297h-2.407l-4.018 10.86zm11.93-4.623c-.482 2.745 1.097 4.809 4.11 4.809 3.588 0 6.925-2.637 7.592-6.439.495-2.823-1.038-4.793-4.083-4.793-4.24 0-7.134 3.661-7.619 6.422zm2.536-.202c.376-2.141 2.298-3.894 4.411-3.894 1.724 0 2.469 1.24 2.213 2.7-.365 2.078-2.249 3.878-4.377 3.878-1.584 0-2.536-1.04-2.247-2.684zm16.221 4.825h2.407l4.018-10.86h-8.154l-.464 1.225c-2.624 6.904-3.399 7.602-4.979 7.4l-.827 2.235c.196.03.629.046.924.046 2.749 0 4.375-2.187 6.348-7.322l.485-1.257h3.401l-3.159 8.533zm4.347 0h2.672l1.627-2.017h4.473l.143 2.017h2.408l-.75-10.86h-1.787l-8.786 10.86zm8.442-7.215l.205 3.166h-2.749l2.544-3.166z" fill="#fff"/><path fill-rule="evenodd" clip-rule="evenodd" d="M108.436 106.927h10.016l32.283-88.596H140.72l-32.284 88.596zm89.142-47.232h3.343L188.439 93.95h-3.343l12.482-34.255z" fill="#fff"/><path d="M227.35 74.31l-8.396 23.044h13.333c1.296 0 2.116-.61 2.551-1.804l7.187-19.715c.091-.862.034-1.526-1.02-1.526H227.35zm.007-27.523h31.728l-3.487 9.572h-21.709l-3.052 8.378h12.804c5.498 0 9.153 4.078 8.575 9.572-.083.786-.299 1.593-.603 2.428l-8.06 22.126c-1.722 4.729-6.296 8.063-11.18 8.063l-26.931.001 21.915-60.14z" fill="#fff"/><path fill-rule="evenodd" clip-rule="evenodd" d="M41.075 34.192c-.953 1.48 2.44 5.356 7.58 8.658 5.139 3.302 10.078 4.78 11.03 3.3l3.345-5.195c.954-1.48-2.44-5.356-7.579-8.658-4.659-2.994-9.153-4.487-10.662-3.637-.508.285-.612.79-.471 1.371C45.33 34.197 55.9 40.716 60.58 41.45c-4.936-.306-15.883-6.693-16.934-11.25l-2.572 3.993z" fill="#fff"/></svg>