<svg width="396" height="71" fill="none" xmlns="http://www.w3.org/2000/svg"><path fill-rule="evenodd" clip-rule="evenodd" d="M287.07 5.652h109.409V.956H287.07v4.696zm0 64.801h109.409v-4.696H287.07v4.696z" fill="#0082C8"/><path d="M64.544 47.237h5.13l8.367-23.066H60.667l-.966 2.603c-5.47 14.664-7.108 16.147-10.478 15.718l-1.722 4.745c.42.066 1.34.1 1.969.1 5.858 0 9.284-4.647 13.396-15.554l1.01-2.67h7.247l-6.579 18.124zm9.432 0H91.98l1.728-4.778H80.833l1.667-4.613h11.748l1.7-4.613H84.2l1.545-4.284h12.576l1.728-4.778H82.343l-8.367 23.066zm17.986 3.856h4.798l1.408-3.856h14.859l-1.407 3.856h4.798l3.135-8.634h-2.681l6.64-18.288h-16.878l-.993 2.768c-3.295 9.194-6.5 13.708-8.03 15.52h-2.514l-3.135 8.634zm18.008-22.144h6.685l-4.912 13.51h-8.704c2.014-2.34 4.238-6.722 6.418-12.225l.513-1.285zm12.678 8.469c-.977 5.832 2.425 10.215 8.845 10.215 7.645 0 14.706-5.602 16.06-13.675 1.004-5.997-2.299-10.182-8.785-10.182-9.035 0-15.137 7.776-16.12 13.642zm5.401-.428c.761-4.548 4.828-8.272 9.328-8.272 3.674 0 5.284 2.637 4.764 5.734-.74 4.416-4.723 8.238-9.257 8.238-3.375 0-5.421-2.207-4.835-5.7zm17.94 10.247h10.093c5.957 0 10.883-1.943 11.877-7.875.392-2.34-.313-3.657-1.422-4.35 1.936-.89 3.834-2.735 4.237-5.14.63-3.756-.964-5.701-6.06-5.701h-10.359l-8.366 23.066zm13.267-9.457c2.151 0 3.579.363 3.331 1.846-.332 1.977-2.031 2.833-5.307 2.833h-4.434l1.711-4.679h4.699zm3.201-8.83c2.383 0 3.045.592 2.851 1.746-.265 1.581-1.672 2.47-3.955 2.47h-5.13l1.535-4.217h4.699zm3.023 18.287h5.693l3.431-4.283h9.531l.341 4.283h5.13l-1.793-23.066h-3.805L165.48 47.237zm17.858-15.322l.495 6.722h-5.857l5.362-6.722zm22.054 15.322h5.129l8.367-23.066h-10.325c-6.056 0-11.242 2.9-12.175 8.469-.508 3.031.738 4.877 2.972 5.965l-9.886 8.632h6.188l8.722-7.611h3.773l-2.765 7.611zm-.571-12.39c-2.118 0-3.314-.955-2.999-2.833.364-2.175 2.399-3.065 5.344-3.065h4.865l-2.146 5.898h-5.064zm19.275 12.39h5.693l3.431-4.283h9.531l.341 4.283h5.13l-1.793-23.066h-3.806l-18.527 23.066zm17.858-15.322l.495 6.722h-5.858l5.363-6.722zm13.416 15.322l2.638-7.249h4.468c6.453 0 12.03-2.866 13.035-8.864.63-3.757-.721-6.953-7.306-6.953h-9.598l-8.367 23.066h5.13zm11.239-18.288c2.813 0 3.762 1.054 3.514 2.537-.37 2.208-2.246 3.724-5.986 3.724h-4.402l2.275-6.26h4.599zm6.036 18.288h18.003l1.727-4.778h-12.873l1.667-4.613h11.748l1.7-4.613h-11.748l1.545-4.284h12.576l1.728-4.778h-17.706l-8.367 23.066zm36.899 0h5.13l8.367-23.066h-5.129l-3.273 9.062h-10.292l3.273-9.062h-5.13l-8.367 23.066h5.129l3.334-9.226h10.292l-3.334 9.226zm7.149 0h5.692l3.432-4.283h9.53l.341 4.283h5.13l-1.793-23.066h-3.806l-18.526 23.066zm17.857-15.322l.495 6.722h-5.858l5.363-6.722z" fill="#0082C8"/><path fill-rule="evenodd" clip-rule="evenodd" d="M287.07 5.652H177.661V.956H287.07v4.696zm0 64.801H177.661v-4.696H287.07v4.696zM68.251 5.652h109.41V.956H68.251v4.696zm0 64.801h109.41v-4.696H68.251v4.696zM68.25 5.652H21.093V.956H68.25v4.696zm.001 64.801H.341v-4.696h67.91v4.696z" fill="#0082C8"/></svg>